<svg width="24" height="24" viewBox="0 0 24 24" fill="none" xmlns="http://www.w3.org/2000/svg">
<path d="M20.776 3.73102C21.3388 3.33117 22.1191 3.46323 22.519 4.02599C22.8922 4.55124 22.802 5.26604 22.3308 5.68411L22.224 5.76898L12.724 12.519C12.3299 12.799 11.8139 12.8245 11.3977 12.5953L11.276 12.519L1.77599 5.76898C1.21323 5.36912 1.08117 4.58876 1.48102 4.02599C1.85423 3.50074 2.55889 3.35069 3.10873 3.65812L3.22401 3.73102L11.999 9.966L20.776 3.73102Z" fill="#757575"/>
<path fill-rule="evenodd" clip-rule="evenodd" d="M3.6 2.75H20.4C21.9434 2.75 23.25 3.91146 23.25 5.42222V18.5778C23.25 20.0885 21.9434 21.25 20.4 21.25H3.6C2.05664 21.25 0.75 20.0885 0.75 18.5778V5.42222C0.75 3.91146 2.05664 2.75 3.6 2.75ZM20.4 5.25H3.6C3.37605 5.25 3.25 5.36205 3.25 5.42222V18.5778C3.25 18.638 3.37605 18.75 3.6 18.75H20.4C20.6239 18.75 20.75 18.638 20.75 18.5778V5.42222C20.75 5.36205 20.6239 5.25 20.4 5.25Z" fill="#757575"/>
</svg>
