<svg width="103" height="40" viewBox="0 0 103 40" fill="none" xmlns="http://www.w3.org/2000/svg">
<path d="M91.3242 28.2603V0.988137C91.3242 0.632412 91.5613 0.395264 91.917 0.395264H101.522C101.877 0.395264 102.114 0.632412 102.114 0.988137V3.39916C102.114 3.75488 101.877 3.99203 101.522 3.99203H94.9209V14.6242H99.7034C100.059 14.6242 100.296 14.8614 100.296 15.2171V17.6281C100.296 17.9838 100.059 18.221 99.7034 18.221H94.9209V25.2564H101.522C101.877 25.2564 102.114 25.4936 102.114 25.8493V28.2603C102.114 28.616 101.877 28.8532 101.522 28.8532H91.917C91.5613 28.8532 91.3242 28.616 91.3242 28.2603Z" fill="#757575"/>
<path d="M78.7549 28.8532C78.3992 28.8532 78.162 28.616 78.162 28.2603V0.988137C78.162 0.632412 78.3992 0.395264 78.7549 0.395264H82.826C86.2251 0.395264 88.9523 3.12248 88.9523 6.4821V22.7268C88.9523 26.126 86.2251 28.8532 82.826 28.8532H78.7549ZM82.826 3.99203H81.7588V25.2564H82.826C84.2489 25.2564 85.3555 24.1497 85.3555 22.7268V6.4821C85.3555 5.09873 84.2489 3.99203 82.826 3.99203Z" fill="#757575"/>
<path d="M64.9999 23.8335V5.37539C64.9999 2.41102 67.411 0 70.3753 0C73.3792 0 75.7902 2.41102 75.7902 5.37539V23.8335C75.7902 26.7979 73.3792 29.2089 70.3753 29.2089C67.411 29.2089 64.9999 26.7979 64.9999 23.8335ZM70.3753 3.59676C69.3872 3.59676 68.5967 4.38726 68.5967 5.37539V23.8335C68.5967 24.8216 69.3872 25.6121 70.3753 25.6121C71.403 25.6121 72.1935 24.8216 72.1935 23.8335V5.37539C72.1935 4.38726 71.403 3.59676 70.3753 3.59676Z" fill="#757575"/>
<path d="M39.3072 28.8532C38.9515 28.8532 38.7144 28.616 38.7144 28.2603V0.988122C38.7144 0.632397 38.9515 0.395249 39.3072 0.395249H41.7182C42.074 0.395249 42.3111 0.632397 42.3111 0.988122V14.6242H45.9079V0.988122C45.9079 0.632397 46.145 0.395249 46.5008 0.395249H48.9118C49.2675 0.395249 49.5047 0.632397 49.5047 0.988122V17.2724C49.5047 22.1735 52.7457 25.6517 57.2515 25.6517C58.9511 25.6517 60.6112 25.0983 61.955 24.3473C62.2317 24.1892 62.3502 24.1102 62.4293 24.1102C62.5479 24.1102 62.6269 24.2683 62.6269 24.4659V27.4698C62.6269 28.4579 60.2554 29.2484 57.5677 29.2484C51.1252 29.2484 46.3822 24.624 45.9079 18.221H42.3111V28.2603C42.3111 28.616 42.074 28.8532 41.7182 28.8532H39.3072ZM57.2515 22.0944C54.2872 22.0944 51.8762 19.6834 51.8762 16.719V5.37539C51.8762 2.41102 54.2872 0 57.2515 0C60.2554 0 62.6269 2.41102 62.6269 5.37539V6.91686C62.6269 7.31211 62.3898 7.54926 62.034 7.54926H59.6625C59.3068 7.54926 59.0697 7.31211 59.0697 6.91686V5.37539C59.0697 4.38726 58.2397 3.59676 57.2515 3.59676C56.2634 3.59676 55.4729 4.38726 55.4729 5.37539V16.719C55.4729 17.7072 56.2634 18.4977 57.2515 18.4977C58.2792 18.4977 59.0697 17.7072 59.0697 16.719V15.138C59.0697 14.7823 59.3068 14.5452 59.6625 14.5452H62.034C62.3898 14.5452 62.6269 14.7823 62.6269 15.138V16.719C62.6269 19.6834 60.2554 22.0944 57.2515 22.0944Z" fill="#757575"/>
<path d="M26.5219 3.99203C26.1662 3.99203 25.929 3.75488 25.929 3.39916V0.988137C25.929 0.632412 26.1662 0.395264 26.5219 0.395264H36.1264C36.4822 0.395264 36.7193 0.632412 36.7193 0.988137V3.39916C36.7193 3.75488 36.4822 3.99203 36.1264 3.99203H33.1225V28.2603C33.1225 28.616 32.8854 28.8532 32.5297 28.8532H30.1187C29.7629 28.8532 29.5258 28.616 29.5258 28.2603V3.99203H26.5219Z" fill="#757575"/>
<path d="M20.3414 0.988137C20.3414 0.632412 20.5786 0.395264 20.9343 0.395264H23.3453C23.701 0.395264 23.9382 0.632412 23.9382 0.988137V28.2603C23.9382 28.616 23.701 28.8532 23.3453 28.8532H20.9343C20.5786 28.8532 20.3414 28.616 20.3414 28.2603V0.988137Z" fill="#757575"/>
<path d="M0 23.8731V0.988137C0 0.632412 0.237149 0.395264 0.592873 0.395264H3.00389C3.35962 0.395264 3.59677 0.632412 3.59677 0.988137V23.8731C3.59677 24.8612 4.38726 25.6517 5.37539 25.6517C6.40303 25.6517 7.15401 24.8612 7.15401 23.8731V0.988137C7.15401 0.632412 7.39116 0.395264 7.74688 0.395264H10.1974C10.5531 0.395264 10.7903 0.632412 10.7903 0.988137V23.8731C10.7903 24.8612 11.5413 25.6517 12.5689 25.6517C13.557 25.6517 14.3871 24.8612 14.3871 23.8731V0.988137C14.3871 0.632412 14.6242 0.395264 14.9799 0.395264H17.391C17.7467 0.395264 17.9838 0.632412 17.9838 0.988137V23.8731C17.9838 26.8374 15.5333 29.2484 12.5689 29.2484C11.1855 29.2484 9.92075 28.7346 8.97215 27.9046C8.02355 28.7346 6.75876 29.2484 5.37539 29.2484C2.41102 29.2484 0 26.8374 0 23.8731Z" fill="#757575"/>
<path d="M97.2305 38.4728V38.4229H97.9013V38.4728C97.9013 38.7915 98.0071 39.0306 98.2188 39.19C98.4305 39.3469 98.7254 39.4254 99.1036 39.4254C99.4842 39.4254 99.7744 39.3446 99.9742 39.1828C100.176 39.0187 100.277 38.8046 100.277 38.5406C100.277 38.3004 100.18 38.1089 99.9849 37.9662C99.7922 37.8211 99.4247 37.6701 98.8824 37.5131C98.3235 37.349 97.9262 37.1575 97.6908 36.9387C97.4553 36.7198 97.3376 36.4071 97.3376 36.0003C97.3376 35.5984 97.4898 35.263 97.7942 34.9942C98.1011 34.7255 98.5268 34.5911 99.0715 34.5911C99.6114 34.5911 100.042 34.7326 100.363 35.0156C100.684 35.2963 100.845 35.6555 100.845 36.0931V36.1431H100.174V36.0931C100.174 35.8148 100.081 35.5912 99.8957 35.4224C99.7101 35.2511 99.4354 35.1655 99.0715 35.1655C98.7052 35.1655 98.4353 35.2392 98.2616 35.3867C98.088 35.5318 98.0012 35.7304 98.0012 35.9825C98.0012 36.2108 98.0904 36.3916 98.2688 36.5248C98.4471 36.6556 98.8123 36.8007 99.3641 36.9601C99.9159 37.1171 100.317 37.3133 100.566 37.5488C100.819 37.7842 100.945 38.1149 100.945 38.5406C100.945 38.9664 100.779 39.316 100.449 39.5895C100.118 39.8631 99.6697 39.9998 99.1036 39.9998C98.5375 39.9998 98.0832 39.8643 97.7407 39.5931C97.4006 39.3196 97.2305 38.9462 97.2305 38.4728Z" fill="#757575"/>
<path d="M86.0847 39.8929V34.6982H89.3171V35.2513H86.759V36.9352H88.9889V37.4918H86.759V39.3399H89.3528V39.8929H86.0847ZM87.3085 33.974L88.0791 32.7681L88.6464 33.1177L87.7544 34.1845L87.3085 33.974Z" fill="#757575"/>
<path d="M74.7962 39.8929V34.6982H77.9751V35.2513H75.4705V37.0351H77.6291V37.5917H75.4705V39.8929H74.7962Z" fill="#757575"/>
<path d="M62.3661 39.893L64.3212 34.6626H64.9349L66.89 39.893H66.1907L64.7708 35.9506C64.7422 35.8697 64.7172 35.7936 64.6958 35.7222C64.6744 35.6485 64.6554 35.5712 64.6387 35.4903H64.6031C64.5864 35.5712 64.5674 35.6485 64.546 35.7222C64.5246 35.7936 64.4996 35.8697 64.4711 35.9506L63.0368 39.893H62.3661ZM63.2045 38.5301L63.4079 37.9771H65.8375L66.0409 38.5301H63.2045Z" fill="#757575"/>
<path d="M50.6494 37.4596V37.1313C50.6494 36.3298 50.8528 35.7066 51.2595 35.2618C51.6662 34.8146 52.1764 34.5911 52.7901 34.5911C53.4038 34.5911 53.8842 34.7599 54.2315 35.0977C54.5787 35.4354 54.7524 35.8434 54.7524 36.3214V36.3607H54.0816V36.3214C54.0816 35.9861 53.9746 35.7102 53.7605 35.4937C53.5465 35.2749 53.223 35.1655 52.7901 35.1655C52.3643 35.1655 52.0135 35.3272 51.7376 35.6507C51.4641 35.9742 51.3273 36.4677 51.3273 37.1313V37.4596C51.3273 38.0732 51.4641 38.5549 51.7376 38.9045C52.0111 39.2518 52.362 39.4254 52.7901 39.4254C53.1992 39.4254 53.5084 39.3148 53.7177 39.0936C53.927 38.8724 54.0471 38.5977 54.0781 38.2695L54.0816 38.2302H54.7524L54.7488 38.2695C54.7036 38.7452 54.5193 39.1531 54.1958 39.4932C53.8723 39.831 53.4038 39.9998 52.7901 39.9998C52.1741 39.9998 51.6627 39.7774 51.2559 39.3327C50.8516 38.8855 50.6494 38.2611 50.6494 37.4596Z" fill="#757575"/>
</svg>
