<svg width="135" height="53" viewBox="0 0 135 53" fill="none" xmlns="http://www.w3.org/2000/svg">
<path d="M120.376 37.0847V1.29668C120.376 0.829876 120.687 0.518677 121.154 0.518677H133.757C134.224 0.518677 134.535 0.829876 134.535 1.29668V4.46054C134.535 4.92734 134.224 5.23854 133.757 5.23854H125.095V19.1907H131.371C131.838 19.1907 132.149 19.5019 132.149 19.9687V23.1325C132.149 23.5993 131.838 23.9105 131.371 23.9105H125.095V33.1428H133.757C134.224 33.1428 134.535 33.454 134.535 33.9208V37.0847C134.535 37.5515 134.224 37.8627 133.757 37.8627H121.154C120.687 37.8627 120.376 37.5515 120.376 37.0847Z" fill="#FFAA06"/>
<path d="M103.881 37.8627C103.415 37.8627 103.103 37.5515 103.103 37.0847V1.29668C103.103 0.829876 103.415 0.518677 103.881 0.518677H109.224C113.684 0.518677 117.263 4.09748 117.263 8.50614V29.8233C117.263 34.2839 113.684 37.8627 109.224 37.8627H103.881ZM109.224 5.23854H107.823V33.1428H109.224C111.091 33.1428 112.543 31.6905 112.543 29.8233V8.50614C112.543 6.69081 111.091 5.23854 109.224 5.23854Z" fill="#FFAA06"/>
<path d="M85.8315 31.2756V7.05386C85.8315 3.16387 88.9954 0 92.8854 0C96.8273 0 99.9911 3.16387 99.9911 7.05386V31.2756C99.9911 35.1656 96.8273 38.3295 92.8854 38.3295C88.9954 38.3295 85.8315 35.1656 85.8315 31.2756ZM92.8854 4.71986C91.5887 4.71986 90.5514 5.7572 90.5514 7.05386V31.2756C90.5514 32.5723 91.5887 33.6096 92.8854 33.6096C94.2339 33.6096 95.2713 32.5723 95.2713 31.2756V7.05386C95.2713 5.7572 94.2339 4.71986 92.8854 4.71986Z" fill="#FFAA06"/>
<path d="M52.1161 37.8627C51.6493 37.8627 51.3381 37.5515 51.3381 37.0847V1.29667C51.3381 0.829865 51.6493 0.518666 52.1161 0.518666H55.28C55.7468 0.518666 56.058 0.829865 56.058 1.29667V19.1907H60.7779V1.29667C60.7779 0.829865 61.0891 0.518666 61.5559 0.518666H64.7197C65.1865 0.518666 65.4977 0.829865 65.4977 1.29667V22.6657C65.4977 29.0972 69.7508 33.6615 75.6636 33.6615C77.8939 33.6615 80.0723 32.9353 81.8357 31.9499C82.1988 31.7424 82.3544 31.6387 82.4581 31.6387C82.6137 31.6387 82.7175 31.8461 82.7175 32.1055V36.0473C82.7175 37.344 79.6055 38.3813 76.0785 38.3813C67.6243 38.3813 61.4003 32.3129 60.7779 23.9105H56.058V37.0847C56.058 37.5515 55.7468 37.8627 55.28 37.8627H52.1161ZM75.6636 28.9935C71.7736 28.9935 68.6097 25.8296 68.6097 21.9396V7.05387C68.6097 3.16387 71.7736 0 75.6636 0C79.6055 0 82.7175 3.16387 82.7175 7.05387V9.07667C82.7175 9.59533 82.4063 9.90653 81.9395 9.90653H78.8275C78.3607 9.90653 78.0495 9.59533 78.0495 9.07667V7.05387C78.0495 5.7572 76.9603 4.71986 75.6636 4.71986C74.3669 4.71986 73.3296 5.7572 73.3296 7.05387V21.9396C73.3296 23.2363 74.3669 24.2736 75.6636 24.2736C77.0121 24.2736 78.0495 23.2363 78.0495 21.9396V19.8649C78.0495 19.3981 78.3607 19.0869 78.8275 19.0869H81.9395C82.4063 19.0869 82.7175 19.3981 82.7175 19.8649V21.9396C82.7175 25.8296 79.6055 28.9935 75.6636 28.9935Z" fill="#FFAA06"/>
<path d="M35.3385 5.23854C34.8717 5.23854 34.5605 4.92734 34.5605 4.46054V1.29668C34.5605 0.829876 34.8717 0.518677 35.3385 0.518677H47.9421C48.4089 0.518677 48.7201 0.829876 48.7201 1.29668V4.46054C48.7201 4.92734 48.4089 5.23854 47.9421 5.23854H44.0003V37.0847C44.0003 37.5515 43.6891 37.8627 43.2223 37.8627H40.0584C39.5916 37.8627 39.2804 37.5515 39.2804 37.0847V5.23854H35.3385Z" fill="#FFAA06"/>
<path d="M27.2283 1.29668C27.2283 0.829876 27.5395 0.518677 28.0063 0.518677H31.1701C31.6369 0.518677 31.9481 0.829876 31.9481 1.29668V37.0847C31.9481 37.5515 31.6369 37.8627 31.1701 37.8627H28.0063C27.5395 37.8627 27.2283 37.5515 27.2283 37.0847V1.29668Z" fill="#FFAA06"/>
<path d="M0.535156 31.3275V1.29668C0.535156 0.829876 0.846356 0.518677 1.31316 0.518677H4.47702C4.94382 0.518677 5.25502 0.829876 5.25502 1.29668V31.3275C5.25502 32.6241 6.29236 33.6615 7.58902 33.6615C8.93755 33.6615 9.92302 32.6241 9.92302 31.3275V1.29668C9.92302 0.829876 10.2342 0.518677 10.701 0.518677H13.9168C14.3836 0.518677 14.6948 0.829876 14.6948 1.29668V31.3275C14.6948 32.6241 15.6802 33.6615 17.0288 33.6615C18.3254 33.6615 19.4146 32.6241 19.4146 31.3275V1.29668C19.4146 0.829876 19.7258 0.518677 20.1926 0.518677H23.3565C23.8233 0.518677 24.1345 0.829876 24.1345 1.29668V31.3275C24.1345 35.2175 20.9188 38.3813 17.0288 38.3813C15.2134 38.3813 13.5537 37.7071 12.3089 36.6179C11.0641 37.7071 9.40435 38.3813 7.58902 38.3813C3.69902 38.3813 0.535156 35.2175 0.535156 31.3275Z" fill="#FFAA06"/>
<path d="M128.126 50.4863V50.4207H129.006V50.4863C129.006 50.9045 129.145 51.2182 129.423 51.4273C129.701 51.6333 130.088 51.7363 130.584 51.7363C131.084 51.7363 131.464 51.6302 131.727 51.418C131.992 51.2026 132.124 50.9217 132.124 50.5752C132.124 50.26 131.997 50.0087 131.741 49.8215C131.488 49.6311 131.006 49.4329 130.294 49.2269C129.56 49.0115 129.039 48.7602 128.73 48.4731C128.421 48.1859 128.267 47.7755 128.267 47.2418C128.267 46.7143 128.466 46.2742 128.866 45.9215C129.269 45.5688 129.827 45.3924 130.542 45.3924C131.251 45.3924 131.815 45.5781 132.237 45.9496C132.658 46.3179 132.869 46.7892 132.869 47.3635V47.429H131.989V47.3635C131.989 46.9983 131.867 46.7049 131.624 46.4833C131.38 46.2586 131.02 46.1462 130.542 46.1462C130.061 46.1462 129.707 46.243 129.479 46.4365C129.251 46.6269 129.137 46.8875 129.137 47.2183C129.137 47.518 129.255 47.7552 129.489 47.93C129.723 48.1017 130.202 48.292 130.926 48.5012C131.65 48.7072 132.176 48.9647 132.504 49.2737C132.835 49.5827 133 50.0165 133 50.5752C133 51.1339 132.783 51.5928 132.349 51.9517C131.915 52.3106 131.327 52.4901 130.584 52.4901C129.841 52.4901 129.245 52.3122 128.796 51.9564C128.349 51.5974 128.126 51.1074 128.126 50.4863Z" fill="white"/>
<path d="M113.5 52.3496V45.5329H117.742V46.2586H114.385V48.4684H117.311V49.1988H114.385V51.624H117.789V52.3496H113.5ZM115.106 44.5825L116.117 43L116.862 43.4588L115.691 44.8587L115.106 44.5825Z" fill="white"/>
<path d="M98.6867 52.3496V45.5329H102.858V46.2586H99.5716V48.5995H102.404V49.3298H99.5716V52.3496H98.6867Z" fill="white"/>
<path d="M82.3752 52.3496L84.9408 45.4861H85.7461L88.3118 52.3496H87.3941L85.5307 47.1762C85.4933 47.0701 85.4605 46.9702 85.4324 46.8766C85.4043 46.7798 85.3794 46.6784 85.3575 46.5722H85.3107C85.2889 46.6784 85.2639 46.7798 85.2358 46.8766C85.2077 46.9702 85.1749 47.0701 85.1375 47.1762L83.2554 52.3496H82.3752ZM83.4754 50.5612L83.7423 49.8355H86.9306L87.1975 50.5612H83.4754Z" fill="white"/>
<path d="M67 49.1566V48.7259C67 47.674 67.2669 46.8563 67.8006 46.2726C68.3343 45.6858 69.0038 45.3924 69.8091 45.3924C70.6144 45.3924 71.2449 45.614 71.7006 46.0572C72.1563 46.5005 72.3841 47.0358 72.3841 47.6631V47.7146H71.5039V47.6631C71.5039 47.223 71.3635 46.861 71.0826 46.5769C70.8017 46.2898 70.3772 46.1462 69.8091 46.1462C69.2504 46.1462 68.79 46.3584 68.428 46.7829C68.069 47.2074 67.8896 47.8551 67.8896 48.7259V49.1566C67.8896 49.9619 68.069 50.594 68.428 51.0528C68.7869 51.5085 69.2473 51.7363 69.8091 51.7363C70.346 51.7363 70.7517 51.5912 71.0264 51.3009C71.3011 51.0106 71.4587 50.6501 71.4993 50.2194L71.5039 50.1679H72.3841L72.3794 50.2194C72.3201 50.8437 72.0782 51.3789 71.6538 51.8253C71.2293 52.2685 70.6144 52.4901 69.8091 52.4901C69.0007 52.4901 68.3296 52.1983 67.7959 51.6146C67.2653 51.0278 67 50.2085 67 49.1566Z" fill="white"/>
</svg>
